<mxfile host="app.diagrams.net" modified="2024-06-04T09:15:11.023Z" agent="Mozilla/5.0 (Windows NT 10.0; Win64; x64) AppleWebKit/537.36 (KHTML, like Gecko) Chrome/125.0.0.0 Safari/537.36" etag="Uu15E1yPR9AP9pbdAE4L" version="24.4.13" type="device">
  <diagram name="Page-1" id="NRBG0oaSvpOTMo38g1ty">
    <mxGraphModel dx="1218" dy="646" grid="1" gridSize="10" guides="1" tooltips="1" connect="1" arrows="1" fold="1" page="1" pageScale="1" pageWidth="850" pageHeight="1100" math="0" shadow="0">
      <root>
        <mxCell id="0" />
        <mxCell id="1" parent="0" />
        <mxCell id="fK59Wi77ZtM1RSxz9Nfy-1" value="" style="group" vertex="1" connectable="0" parent="1">
          <mxGeometry x="70" y="50" width="709" height="210" as="geometry" />
        </mxCell>
        <mxCell id="JQb_zkOhtEEEIp9_e_Yb-13" style="edgeStyle=orthogonalEdgeStyle;rounded=0;orthogonalLoop=1;jettySize=auto;html=1;exitX=1;exitY=0.5;exitDx=0;exitDy=0;entryX=0;entryY=0.5;entryDx=0;entryDy=0;startArrow=classic;startFill=0;dashed=1;endArrow=classic;endFill=0;" parent="fK59Wi77ZtM1RSxz9Nfy-1" source="JQb_zkOhtEEEIp9_e_Yb-9" target="ofzHFS9WlKD7CNdxG9NS-36" edge="1">
          <mxGeometry relative="1" as="geometry" />
        </mxCell>
        <mxCell id="JQb_zkOhtEEEIp9_e_Yb-9" value="" style="rounded=0;whiteSpace=wrap;html=1;" parent="fK59Wi77ZtM1RSxz9Nfy-1" vertex="1">
          <mxGeometry y="25" width="130" height="160" as="geometry" />
        </mxCell>
        <mxCell id="JQb_zkOhtEEEIp9_e_Yb-10" value="&lt;b&gt;postgres database&lt;/b&gt;" style="text;html=1;align=center;verticalAlign=middle;whiteSpace=wrap;rounded=0;" parent="fK59Wi77ZtM1RSxz9Nfy-1" vertex="1">
          <mxGeometry y="25" width="130" height="30" as="geometry" />
        </mxCell>
        <mxCell id="JQb_zkOhtEEEIp9_e_Yb-14" style="edgeStyle=orthogonalEdgeStyle;rounded=0;orthogonalLoop=1;jettySize=auto;html=1;exitX=1;exitY=0.5;exitDx=0;exitDy=0;entryX=0;entryY=0.667;entryDx=0;entryDy=0;startArrow=classic;startFill=0;dashed=1;endArrow=classic;endFill=0;entryPerimeter=0;" parent="fK59Wi77ZtM1RSxz9Nfy-1" target="ofzHFS9WlKD7CNdxG9NS-36" edge="1">
          <mxGeometry relative="1" as="geometry">
            <mxPoint x="130" y="140" as="sourcePoint" />
            <mxPoint x="190" y="140" as="targetPoint" />
          </mxGeometry>
        </mxCell>
        <mxCell id="JQb_zkOhtEEEIp9_e_Yb-15" style="edgeStyle=orthogonalEdgeStyle;rounded=0;orthogonalLoop=1;jettySize=auto;html=1;exitX=1;exitY=0.5;exitDx=0;exitDy=0;entryX=0;entryY=0.335;entryDx=0;entryDy=0;startArrow=classic;startFill=0;dashed=1;endArrow=classic;endFill=0;entryPerimeter=0;" parent="fK59Wi77ZtM1RSxz9Nfy-1" target="ofzHFS9WlKD7CNdxG9NS-36" edge="1">
          <mxGeometry relative="1" as="geometry">
            <mxPoint x="130" y="70" as="sourcePoint" />
            <mxPoint x="190" y="70" as="targetPoint" />
          </mxGeometry>
        </mxCell>
        <mxCell id="JQb_zkOhtEEEIp9_e_Yb-16" value="" style="endArrow=classic;html=1;rounded=0;entryX=1;entryY=0.844;entryDx=0;entryDy=0;entryPerimeter=0;" parent="fK59Wi77ZtM1RSxz9Nfy-1" edge="1">
          <mxGeometry width="50" height="50" relative="1" as="geometry">
            <mxPoint x="195" y="160" as="sourcePoint" />
            <mxPoint x="135" y="160.03999999999996" as="targetPoint" />
          </mxGeometry>
        </mxCell>
        <mxCell id="JQb_zkOhtEEEIp9_e_Yb-17" value="" style="rounded=1;whiteSpace=wrap;html=1;fillColor=#ffcccc;strokeColor=#36393d;" parent="fK59Wi77ZtM1RSxz9Nfy-1" vertex="1">
          <mxGeometry x="140" y="169" width="53" height="31" as="geometry" />
        </mxCell>
        <mxCell id="JQb_zkOhtEEEIp9_e_Yb-18" value="" style="endArrow=none;html=1;rounded=0;entryX=1;entryY=0.844;entryDx=0;entryDy=0;entryPerimeter=0;startArrow=classic;startFill=1;endFill=0;" parent="fK59Wi77ZtM1RSxz9Nfy-1" edge="1">
          <mxGeometry width="50" height="50" relative="1" as="geometry">
            <mxPoint x="195" y="50" as="sourcePoint" />
            <mxPoint x="135" y="50.039999999999964" as="targetPoint" />
          </mxGeometry>
        </mxCell>
        <mxCell id="JQb_zkOhtEEEIp9_e_Yb-19" value="&lt;p style=&quot;line-height: 110%;&quot;&gt;&lt;br&gt;&lt;/p&gt;&lt;p&gt;&lt;/p&gt;" style="rounded=1;whiteSpace=wrap;html=1;fillColor=#cce5ff;strokeColor=#36393d;" parent="fK59Wi77ZtM1RSxz9Nfy-1" vertex="1">
          <mxGeometry x="140" y="10" width="53" height="31" as="geometry" />
        </mxCell>
        <mxCell id="JQb_zkOhtEEEIp9_e_Yb-20" value="&lt;p style=&quot;line-height: 100%;&quot;&gt;&lt;/p&gt;&lt;div&gt;&lt;span style=&quot;font-size: 8px;&quot;&gt;pg_model&lt;/span&gt;&lt;/div&gt;&lt;p&gt;&lt;/p&gt;" style="text;html=1;align=center;verticalAlign=middle;whiteSpace=wrap;rounded=0;" parent="fK59Wi77ZtM1RSxz9Nfy-1" vertex="1">
          <mxGeometry x="141.5" y="9" width="50" height="19.5" as="geometry" />
        </mxCell>
        <mxCell id="JQb_zkOhtEEEIp9_e_Yb-22" value="&lt;p style=&quot;line-height: 100%;&quot;&gt;&lt;/p&gt;&lt;div&gt;&lt;span style=&quot;font-size: 8px;&quot;&gt;module&lt;/span&gt;&lt;/div&gt;&lt;p&gt;&lt;/p&gt;" style="text;html=1;align=center;verticalAlign=middle;whiteSpace=wrap;rounded=0;" parent="fK59Wi77ZtM1RSxz9Nfy-1" vertex="1">
          <mxGeometry x="141.5" y="21.5" width="50" height="19.5" as="geometry" />
        </mxCell>
        <mxCell id="JQb_zkOhtEEEIp9_e_Yb-23" value="&lt;p style=&quot;line-height: 100%;&quot;&gt;&lt;/p&gt;&lt;div&gt;&lt;span style=&quot;font-size: 8px;&quot;&gt;SPI_execute&lt;/span&gt;&lt;/div&gt;&lt;p&gt;&lt;/p&gt;" style="text;html=1;align=center;verticalAlign=middle;whiteSpace=wrap;rounded=0;" parent="fK59Wi77ZtM1RSxz9Nfy-1" vertex="1">
          <mxGeometry x="141.5" y="173.75" width="50" height="19.5" as="geometry" />
        </mxCell>
        <mxCell id="JQb_zkOhtEEEIp9_e_Yb-30" value="" style="group" parent="fK59Wi77ZtM1RSxz9Nfy-1" vertex="1" connectable="0">
          <mxGeometry x="10" y="59" width="110" height="110" as="geometry" />
        </mxCell>
        <mxCell id="JQb_zkOhtEEEIp9_e_Yb-26" value="" style="whiteSpace=wrap;html=1;aspect=fixed;" parent="JQb_zkOhtEEEIp9_e_Yb-30" vertex="1">
          <mxGeometry x="30" width="80" height="80" as="geometry" />
        </mxCell>
        <mxCell id="JQb_zkOhtEEEIp9_e_Yb-27" value="" style="whiteSpace=wrap;html=1;aspect=fixed;" parent="JQb_zkOhtEEEIp9_e_Yb-30" vertex="1">
          <mxGeometry x="20" y="10" width="80" height="80" as="geometry" />
        </mxCell>
        <mxCell id="JQb_zkOhtEEEIp9_e_Yb-28" value="" style="whiteSpace=wrap;html=1;aspect=fixed;" parent="JQb_zkOhtEEEIp9_e_Yb-30" vertex="1">
          <mxGeometry x="10" y="20" width="80" height="80" as="geometry" />
        </mxCell>
        <mxCell id="JQb_zkOhtEEEIp9_e_Yb-29" value="" style="whiteSpace=wrap;html=1;aspect=fixed;" parent="JQb_zkOhtEEEIp9_e_Yb-30" vertex="1">
          <mxGeometry y="30" width="80" height="80" as="geometry" />
        </mxCell>
        <mxCell id="ofzHFS9WlKD7CNdxG9NS-36" value="" style="rounded=0;whiteSpace=wrap;html=1;" parent="fK59Wi77ZtM1RSxz9Nfy-1" vertex="1">
          <mxGeometry x="199" width="505" height="210" as="geometry" />
        </mxCell>
        <mxCell id="ofzHFS9WlKD7CNdxG9NS-37" value="&lt;b&gt;pg-model&amp;nbsp;&lt;span style=&quot;background-color: initial;&quot;&gt;extension&lt;/span&gt;&lt;/b&gt;" style="text;html=1;align=center;verticalAlign=middle;whiteSpace=wrap;rounded=0;" parent="fK59Wi77ZtM1RSxz9Nfy-1" vertex="1">
          <mxGeometry x="199" width="130" height="30" as="geometry" />
        </mxCell>
        <mxCell id="ofzHFS9WlKD7CNdxG9NS-30" value="" style="rounded=0;whiteSpace=wrap;html=1;" parent="fK59Wi77ZtM1RSxz9Nfy-1" vertex="1">
          <mxGeometry x="559" y="10" width="130" height="80" as="geometry" />
        </mxCell>
        <mxCell id="JQb_zkOhtEEEIp9_e_Yb-4" style="edgeStyle=orthogonalEdgeStyle;rounded=0;orthogonalLoop=1;jettySize=auto;html=1;exitX=0;exitY=0.25;exitDx=0;exitDy=0;entryX=1;entryY=0.25;entryDx=0;entryDy=0;" parent="fK59Wi77ZtM1RSxz9Nfy-1" source="ofzHFS9WlKD7CNdxG9NS-32" target="ofzHFS9WlKD7CNdxG9NS-17" edge="1">
          <mxGeometry relative="1" as="geometry" />
        </mxCell>
        <mxCell id="ofzHFS9WlKD7CNdxG9NS-32" value="Wrap torch tensor and torch module (in C++)" style="text;html=1;align=center;verticalAlign=middle;whiteSpace=wrap;rounded=0;" parent="fK59Wi77ZtM1RSxz9Nfy-1" vertex="1">
          <mxGeometry x="559" y="40" width="130" height="50" as="geometry" />
        </mxCell>
        <mxCell id="ofzHFS9WlKD7CNdxG9NS-31" value="&lt;b&gt;TorchWrapper&lt;/b&gt;" style="text;html=1;align=center;verticalAlign=middle;whiteSpace=wrap;rounded=0;strokeColor=#36393d;fillColor=#cdeb8b;" parent="fK59Wi77ZtM1RSxz9Nfy-1" vertex="1">
          <mxGeometry x="559" y="10" width="130" height="30" as="geometry" />
        </mxCell>
        <mxCell id="JQb_zkOhtEEEIp9_e_Yb-2" value="" style="group" parent="fK59Wi77ZtM1RSxz9Nfy-1" vertex="1" connectable="0">
          <mxGeometry x="559" y="120" width="150" height="80" as="geometry" />
        </mxCell>
        <mxCell id="JQb_zkOhtEEEIp9_e_Yb-3" style="edgeStyle=orthogonalEdgeStyle;rounded=0;orthogonalLoop=1;jettySize=auto;html=1;exitX=0.75;exitY=0;exitDx=0;exitDy=0;" parent="JQb_zkOhtEEEIp9_e_Yb-2" source="ofzHFS9WlKD7CNdxG9NS-24" target="ofzHFS9WlKD7CNdxG9NS-20" edge="1">
          <mxGeometry relative="1" as="geometry" />
        </mxCell>
        <mxCell id="ofzHFS9WlKD7CNdxG9NS-19" value="" style="rounded=0;whiteSpace=wrap;html=1;" parent="JQb_zkOhtEEEIp9_e_Yb-2" vertex="1">
          <mxGeometry width="130" height="80" as="geometry" />
        </mxCell>
        <mxCell id="ofzHFS9WlKD7CNdxG9NS-24" value="provide SPI connections and query execution APIs" style="text;html=1;align=center;verticalAlign=middle;whiteSpace=wrap;rounded=0;" parent="JQb_zkOhtEEEIp9_e_Yb-2" vertex="1">
          <mxGeometry y="30" width="130" height="50" as="geometry" />
        </mxCell>
        <mxCell id="ofzHFS9WlKD7CNdxG9NS-20" value="&lt;b&gt;Spi&lt;/b&gt;" style="text;html=1;align=center;verticalAlign=middle;whiteSpace=wrap;rounded=0;strokeColor=#36393d;fillColor=#cdeb8b;" parent="JQb_zkOhtEEEIp9_e_Yb-2" vertex="1">
          <mxGeometry width="130" height="30" as="geometry" />
        </mxCell>
        <mxCell id="JQb_zkOhtEEEIp9_e_Yb-6" style="edgeStyle=orthogonalEdgeStyle;rounded=0;orthogonalLoop=1;jettySize=auto;html=1;exitX=0;exitY=0.25;exitDx=0;exitDy=0;entryX=1;entryY=0.5;entryDx=0;entryDy=0;" parent="fK59Wi77ZtM1RSxz9Nfy-1" source="ofzHFS9WlKD7CNdxG9NS-24" target="ofzHFS9WlKD7CNdxG9NS-17" edge="1">
          <mxGeometry relative="1" as="geometry">
            <Array as="points">
              <mxPoint x="539" y="162" />
              <mxPoint x="539" y="127" />
            </Array>
          </mxGeometry>
        </mxCell>
        <mxCell id="JQb_zkOhtEEEIp9_e_Yb-8" value="" style="endArrow=classic;html=1;rounded=0;exitX=-0.001;exitY=0.378;exitDx=0;exitDy=0;exitPerimeter=0;entryX=0.999;entryY=0.375;entryDx=0;entryDy=0;entryPerimeter=0;" parent="fK59Wi77ZtM1RSxz9Nfy-1" source="ofzHFS9WlKD7CNdxG9NS-17" target="ofzHFS9WlKD7CNdxG9NS-9" edge="1">
          <mxGeometry width="50" height="50" relative="1" as="geometry">
            <mxPoint x="399" y="170" as="sourcePoint" />
            <mxPoint x="449" y="120" as="targetPoint" />
          </mxGeometry>
        </mxCell>
        <mxCell id="ofzHFS9WlKD7CNdxG9NS-2" value="" style="rounded=0;whiteSpace=wrap;html=1;" parent="fK59Wi77ZtM1RSxz9Nfy-1" vertex="1">
          <mxGeometry x="209" y="55" width="140" height="110" as="geometry" />
        </mxCell>
        <mxCell id="ofzHFS9WlKD7CNdxG9NS-4" value="&lt;b&gt;Interface&lt;/b&gt;" style="text;html=1;align=center;verticalAlign=middle;whiteSpace=wrap;rounded=0;strokeColor=#36393d;fillColor=#ffcc99;" parent="fK59Wi77ZtM1RSxz9Nfy-1" vertex="1">
          <mxGeometry x="209" y="55" width="140" height="33.75" as="geometry" />
        </mxCell>
        <mxCell id="ofzHFS9WlKD7CNdxG9NS-9" value="model saving, loading, training and predicting" style="text;html=1;align=center;verticalAlign=middle;whiteSpace=wrap;rounded=0;" parent="fK59Wi77ZtM1RSxz9Nfy-1" vertex="1">
          <mxGeometry x="209" y="88.75" width="140" height="76.25" as="geometry" />
        </mxCell>
        <mxCell id="ofzHFS9WlKD7CNdxG9NS-10" value="" style="rounded=0;whiteSpace=wrap;html=1;" parent="fK59Wi77ZtM1RSxz9Nfy-1" vertex="1">
          <mxGeometry x="384" y="55" width="140" height="110.00000000000001" as="geometry" />
        </mxCell>
        <mxCell id="ofzHFS9WlKD7CNdxG9NS-16" value="&lt;b&gt;Core&lt;/b&gt;" style="text;html=1;align=center;verticalAlign=middle;whiteSpace=wrap;rounded=0;strokeColor=#36393d;fillColor=#ffff88;" parent="fK59Wi77ZtM1RSxz9Nfy-1" vertex="1">
          <mxGeometry x="384" y="55" width="140" height="33.75" as="geometry" />
        </mxCell>
        <mxCell id="ofzHFS9WlKD7CNdxG9NS-17" value="implementations of interface functions" style="text;html=1;align=center;verticalAlign=middle;whiteSpace=wrap;rounded=0;" parent="fK59Wi77ZtM1RSxz9Nfy-1" vertex="1">
          <mxGeometry x="384" y="88.75" width="140" height="76.25" as="geometry" />
        </mxCell>
      </root>
    </mxGraphModel>
  </diagram>
</mxfile>
